<svg width="100%" height="100%" viewBox="0 0 2203 512" version="1.1" xmlns="http://www.w3.org/2000/svg" xmlns:xlink="http://www.w3.org/1999/xlink" xml:space="preserve" xmlns:serif="http://www.serif.com/" style="fill-rule:evenodd;clip-rule:evenodd;stroke-linejoin:round;stroke-miterlimit:2;">
    <g transform="matrix(58.422,0,0,58.422,-3.91468e+06,-708133)">
        <path d="M67008.6,12128.2L67011.6,12128.2L67011.6,12129.7L67006.9,12129.7L67006.9,12121.1L67008.6,12121.1L67008.6,12128.2Z" style="fill:rgb(255,254,249);fill-rule:nonzero;"/>
        <path d="M67025.3,12126.8C67025.2,12127.8 67025,12128.5 67024.5,12129C67024,12129.5 67023.2,12129.8 67022.3,12129.8C67021.4,12129.8 67020.6,12129.5 67020.1,12128.8C67019.6,12128.2 67019.3,12127.3 67019.3,12126.1L67019.3,12124.7C67019.3,12123.5 67019.6,12122.6 67020.1,12122C67020.7,12121.3 67021.4,12121 67022.4,12121C67023.3,12121 67024,12121.3 67024.5,12121.8C67025,12122.3 67025.2,12123 67025.3,12124L67023.6,12124C67023.5,12123.4 67023.5,12123 67023.3,12122.8C67023.1,12122.5 67022.8,12122.4 67022.4,12122.4C67021.9,12122.4 67021.6,12122.6 67021.4,12122.9C67021.2,12123.2 67021.1,12123.8 67021.1,12124.5L67021.1,12126.1C67021.1,12127 67021.2,12127.5 67021.4,12127.9C67021.5,12128.2 67021.9,12128.3 67022.3,12128.3C67022.8,12128.3 67023.1,12128.2 67023.3,12128C67023.4,12127.8 67023.5,12127.4 67023.6,12126.8L67025.3,12126.8Z" style="fill:rgb(255,254,249);fill-rule:nonzero;"/>
        <path d="M67028.7,12126.4L67028.1,12127.2L67028.1,12129.7L67026.3,12129.7L67026.3,12121.1L67028.1,12121.1L67028.1,12124.8L67028.6,12123.9L67030.2,12121.1L67032.3,12121.1L67029.9,12124.9L67032.3,12129.7L67030.3,12129.7L67028.7,12126.4Z" style="fill:rgb(255,254,249);fill-rule:nonzero;"/>
        <path d="M67037.4,12126L67034.7,12126L67034.7,12128.2L67037.9,12128.2L67037.9,12129.7L67033,12129.7L67033,12121.1L67037.9,12121.1L67037.9,12122.6L67034.7,12122.6L67034.7,12124.6L67037.4,12124.6L67037.4,12126Z" style="fill:rgb(255,254,249);fill-rule:nonzero;"/>
        <path d="M67041.4,12125L67042.7,12121.1L67044.6,12121.1L67042.3,12126.6L67042.3,12129.7L67040.6,12129.7L67040.6,12126.6L67038.3,12121.1L67040.1,12121.1L67041.4,12125Z" style="fill:rgb(255,254,249);fill-rule:nonzero;"/>
    </g>
    <g transform="matrix(0.795075,0,0,0.795075,-53087,-10286.5)">
        <path d="M67209.3,13185.5C67195.1,13187.1 67181.9,13193.4 67171.7,13203.6C67159.9,13215.4 67153.2,13231.5 67153.2,13248.2L67153.2,13402.5C67153.2,13501.5 67233.5,13581.7 67332.5,13581.7C67363.2,13581.7 67395.2,13581.7 67426,13581.7C67525,13581.7 67605.2,13501.5 67605.2,13402.5C67605.2,13352.9 67605.2,13286.3 67605.2,13248.2C67605.2,13231.5 67598.6,13215.4 67586.7,13203.6C67576.2,13193 67562.2,13186.5 67547.4,13185.3L67547.4,13115.5C67547.4,13022.1 67471.7,12946.4 67378.3,12946.4C67378.3,12946.4 67378.3,12946.4 67378.3,12946.4C67285,12946.4 67209.3,13022.1 67209.3,13115.5L67209.3,13185.5ZM67351,13375L67351,13440.4C67351,13447.9 67354,13455.1 67359.3,13460.3C67364.6,13465.6 67371.8,13468.6 67379.2,13468.6C67379.2,13468.6 67379.2,13468.6 67379.2,13468.6C67386.7,13468.6 67393.9,13465.6 67399.2,13460.3C67404.5,13455.1 67407.4,13447.9 67407.4,13440.4L67407.4,13375C67411.2,13372.7 67414.7,13370 67417.9,13366.8C67428.1,13356.6 67433.8,13342.7 67433.8,13328.2C67433.8,13328.2 67433.8,13328.2 67433.8,13328.2C67433.8,13313.7 67428.1,13299.8 67417.9,13289.6C67407.6,13279.3 67393.7,13273.6 67379.2,13273.6C67379.2,13273.6 67379.2,13273.6 67379.2,13273.6C67364.8,13273.6 67350.9,13279.3 67340.6,13289.6C67330.4,13299.8 67324.6,13313.7 67324.6,13328.2L67324.6,13328.2C67324.6,13342.7 67330.4,13356.6 67340.6,13366.8C67343.8,13370 67347.3,13372.7 67351,13375ZM67488.4,13114.9C67488.4,13085.7 67476.8,13057.7 67456.1,13037.1C67435.5,13016.4 67407.5,13004.9 67378.3,13004.9C67378.3,13004.9 67378.3,13004.9 67378.3,13004.9C67349.2,13004.9 67321.2,13016.4 67300.5,13037.1C67279.9,13057.7 67268.3,13085.7 67268.3,13114.9L67268.3,13185.1L67488.4,13185.1L67488.4,13114.9Z" style="fill:rgb(105,25,255);"/>
    </g>
</svg>
